<?xml version="1.0" encoding="utf-8"?>
<!-- Generator: Adobe Illustrator 27.9.0, SVG Export Plug-In . SVG Version: 6.00 Build 0)  -->
<svg version="1.1" id="Layer_1" xmlns="http://www.w3.org/2000/svg" xmlns:xlink="http://www.w3.org/1999/xlink" x="0px" y="0px"
	 viewBox="0 0 74.4 39.8" style="enable-background:new 0 0 74.4 39.8;" xml:space="preserve">
<style type="text/css">
	.st0{fill:#292929;}
</style>
<polygon class="st0" points="17,16.8 17,16.8 17,9.5 12.1,4.6 0,4.6 0,9.5 9.7,9.5 12.1,12 12.1,14.4 0,26.6 0,33.7 0.2,33.7 
	17,16.9 "/>
<polygon class="st0" points="21.9,19.3 33.8,7.3 33.8,0 17,16.8 17,16.9 17,29.1 28.8,29.1 33.8,24.2 21.9,24.2 "/>
<polygon class="st0" points="28.8,29.1 24.3,33.7 44.9,33.7 44.9,29.1 "/>
<path class="st0" d="M74.4,12.6l-4.5-4.5l-7.6,0l0,4.5h5.3l2.3,2.3v4.5l-2.3,2.3H56.4v-6.8l-4.5-4.5l-2.3-2.3h-9l-6.8,6.8v9.3h4.5
	v-5v-2l4.5-4.5h4.5l4.5,4.5v6.8v0.3h-7v4.9l7,0v10.7h4.5h13.6l4.5-4.5v-9l-2.3-2.3l2.3-2.3V12.6z M69.9,33l-2.3,2.3H56.4v-9h11.3
	l2.3,2.3V33z"/>
</svg>
