<?xml version="1.0" encoding="utf-8"?>
<!-- Generator: Adobe Illustrator 27.9.0, SVG Export Plug-In . SVG Version: 6.00 Build 0)  -->
<svg version="1.1" id="Layer_1" xmlns="http://www.w3.org/2000/svg" xmlns:xlink="http://www.w3.org/1999/xlink" x="0px" y="0px"
	 viewBox="0 0 197.8 39.7" style="enable-background:new 0 0 197.8 39.7;" xml:space="preserve">
<style type="text/css">
	.st0{fill:#292929;}
</style>
<g>
	<g>
		<path class="st0" d="M55.5,19.7c0-5.3,0-10.6,0-15.9C55.5,1.5,57,0,59.3,0c3.9,0,7.8,0,11.8,0c2.5,0,4.8,0.7,6.7,2.4
			C78.5,3,79.3,3.6,80,4.1c2.3,1.7,3.2,4.1,3.2,6.9c0,5.8,0,11.6,0,17.4c0,2.6-0.8,4.8-2.8,6.5c-0.9,0.8-1.8,1.5-2.6,2.3
			c-2.1,1.8-4.5,2.4-7.2,2.3c-3.8,0-7.6,0-11.4,0c-2.2,0-3.7-1.5-3.7-3.7C55.5,30.5,55.5,25.1,55.5,19.7z M61.7,33.2
			c0.1,0,0.2,0,0.3,0c3,0,6,0,9.1,0c1,0,1.9-0.3,2.7-0.9c0.7-0.6,1.4-1.2,2.1-1.8c0.8-0.8,1.2-1.8,1.2-2.9c0-5.1-0.1-10.1,0-15.2
			c0-1.8-0.6-3.1-1.9-4.2c-0.3-0.3-0.6-0.6-1-0.8c-0.9-0.8-2-1.2-3.2-1.2c-1.9,0-3.7,0-5.6,0c-1.2,0-2.3,0-3.5,0
			C61.7,15.3,61.7,24.3,61.7,33.2z"/>
		<path class="st0" d="M6.5,6.5c0,0.4,0,0.7,0,1c0,2.3,0,4.7,0,7c0,1.4,0.7,2.1,2.1,2.1c2.5,0,4.9,0,7.4,0c2.5,0,3.9,1.9,3.2,4.3
			c-0.4,1.3-1.4,2.1-2.9,2.2c-2.3,0.1-4.6,0-6.9,0c-0.4,0-0.8,0-1.2,0c-1,0.1-1.7,0.7-1.7,1.6c0,2.7,0,5.5,0,8.3c0.3,0,0.5,0,0.8,0
			c4.4,0,8.8,0,13.2,0c0.3,0,0.5,0,0.8,0c2.7,0.2,3.5,2.4,2.9,4.4c-0.4,1.3-1.6,2-3.1,2c-1.8,0-3.7,0-5.5,0c-4,0-8,0-11.9,0
			c-0.4,0-0.7,0-1.1-0.1C0.9,39,0,37.9,0,36.2c0-3.8,0.1-7.6,0-11.3c0-1.1,0.1-2.1,0.7-3c0.9-1.3,0.9-2.5,0.1-3.8
			C0.1,16.9,0,15.6,0,14.2c0.1-3.3,0-6.6,0-9.9c0-0.3,0-0.6,0-0.8C-0.1,1.6,1,0.2,3,0c0.2,0,0.5,0,0.7,0c5.7,0,11.4,0,17.1,0
			c0.4,0,0.7,0,1.1,0.1c1.8,0.4,2.7,1.6,2.5,3.5c-0.1,1.6-1.2,2.6-2.9,2.8c-0.3,0-0.6,0-0.9,0c-4.4,0-8.8,0-13.3,0
			C7.1,6.5,6.8,6.5,6.5,6.5z"/>
		<path class="st0" d="M48.7,20c2.7,0.5,3.6,1.4,3.5,3.4c0,1.9-1.1,2.8-3.5,3.2c0,0.2,0,0.5,0,0.7c0,2.7,0,5.5,0,8.2
			c0,0.3,0,0.6,0,0.9c-0.2,2.3-1.8,3.4-4,3c-1.5-0.3-2.4-1.5-2.5-3.4c0-2.9,0-5.8,0-8.7c0-0.2,0-0.4,0-0.7c-0.3,0-0.5,0-0.8,0
			c-3.8,0-7.6,0-11.4,0c-2,0-3.3-1.3-3.3-3.3c0-6.5,0-13,0-19.5c0-0.5,0-1.1,0.2-1.6C27.4,0.8,28.5,0,30.2,0c1.6,0,2.7,0.9,3,2.4
			c0.1,0.5,0.1,1,0.1,1.5c0,5.2,0,10.3,0,15.5c0,0.2,0,0.4,0,0.7c3,0,5.9,0,8.9,0c0-0.2,0-0.5,0-0.7c0-3.6,0-7.3,0-10.9
			c0-0.3,0-0.5,0-0.8c0.2-2.3,2-3.6,4.2-3c1.3,0.3,2,1.2,2.2,2.5c0.1,0.5,0.1,0.9,0.1,1.4c0,3.6,0,7.2,0,10.7
			C48.7,19.5,48.7,19.8,48.7,20z"/>
		<path class="st0" d="M112.6,31.1c0-2.3,0-4.6,0-7c0-1.1,0.5-1.6,1.5-1.6c1.7,0,3.4,0,5.1,0c2.2,0,3.5,1.3,4.7,2.9
			c0.3,0.4,0.3,1,0.3,1.4c0,2.7,0,5.5,0,8.2c0,1.1-0.5,1.9-1.2,2.6c-1.3,1.3-2.8,2-4.7,1.9c-1.3-0.1-2.7,0-4,0
			c-1.4,0-1.8-0.4-1.8-1.7C112.6,35.6,112.6,33.3,112.6,31.1z M114.8,37.4c1.6,0,3.1,0.1,4.6,0c1.5-0.1,2.8-1.6,2.8-3.1
			c0-2.1,0-4.2,0-6.4c0-1.7-1.4-3.1-3.1-3.2c-1.3,0-2.6,0-3.8,0c-0.2,0-0.3,0-0.5,0.1C114.8,29,114.8,33.2,114.8,37.4z"/>
		<path class="st0" d="M136.3,5.3c1.7-1.1,2.4-1,3.7,0.2c0.1-0.1,0.3-0.2,0.4-0.4c0.7-0.7,1.5-0.8,2.4-0.5c0.9,0.3,1.4,1,1.4,1.9
			c0.1,2.8,0.2,5.7,0.3,8.5c0,0.4-0.1,0.8-0.4,1.1c-0.2,0.2-0.7,0.3-1,0.1c-0.3-0.2-0.6-0.6-0.6-0.9c-0.1-0.9-0.1-1.8-0.1-2.7
			c-0.1-1.7-0.1-3.4-0.2-5c0-0.3-0.2-0.5-0.3-0.8c-0.3,0.1-0.5,0.2-0.8,0.4c-0.6,0.5-0.8,1-0.8,1.8c0.1,1.9,0,3.8,0,5.6
			c0,0.3,0,0.6-0.1,0.9c-0.1,0.5-0.4,0.8-1,0.8c-0.5,0-0.9-0.2-1-0.8c-0.1-0.3-0.1-0.6-0.1-0.9c0-2.3,0-4.5,0-6.8
			c0-0.2,0-0.5-0.1-0.7c-0.1-0.4-0.4-0.5-0.8-0.3c-0.7,0.6-1.3,1.1-1.2,2.2c0.1,1.9,0,3.8,0,5.6c0,1.1-0.3,1.5-1.1,1.5
			c-0.7,0-1-0.4-1-1.5c0-2.9,0-5.9,0-8.8c0-0.2,0-0.5,0.1-0.7c0.1-0.4,0.3-0.7,0.8-0.8c0.5-0.1,0.8,0.1,1.1,0.5
			C136.2,5.1,136.2,5.1,136.3,5.3z"/>
		<path class="st0" d="M98.7,2.2c0,1.4,0,2.8,0,4.1c0,0.5,0.5,0.8,1.2,0.8c1.1,0,2.1,0,3.2,0c0.7,0,1.1,0.4,1.1,1
			c0.1,0.7-0.3,1.1-1.1,1.1c-1,0-2,0-3,0c-1,0-1.4,0.4-1.4,1.4c0,1.2,0,2.3,0,3.6c0.2,0,0.5,0,0.7,0c1.9,0,3.8,0,5.7,0
			c0.5,0,0.9,0.1,1.2,0.5c0.4,0.7,0,1.5-0.9,1.6c-0.5,0-1,0-1.5,0c-2,0-4,0-6,0c-1,0-1.3-0.3-1.3-1.3c0-1.4,0-2.8,0-4.1
			c0-0.7,0.1-1.4,0.4-2c0.1-0.3,0.2-0.8,0-1.1c-0.4-0.8-0.5-1.6-0.5-2.4c0-1.4,0-2.8,0-4.2c0-0.7,0.3-1.1,1-1.1c2.6,0,5.2,0,7.7,0
			c0.7,0,1.1,0.4,1.1,1.1c0,0.6-0.4,1-1.1,1c-1.9,0-3.9,0-5.8,0C99.2,2.2,99,2.2,98.7,2.2z"/>
		<path class="st0" d="M122.9,12c-0.2,1.2,0.7,2.2,1.9,2.3c1.5,0,3,0,4.6,0c0.3,0,0.7,0,1,0.1c0.5,0.1,0.7,0.5,0.7,1
			c0,0.5-0.3,0.8-0.8,1c-0.3,0.1-0.5,0.1-0.8,0.1c-1.7,0-3.5,0-5.2,0c-0.6,0-1.2-0.2-1.7-0.6c-1.5-1-2.2-2.4-2-4.2
			c0.1-1.2,0-2.4,0.1-3.6c0-0.8,0.4-1.4,1-1.9c0.3-0.2,0.6-0.5,0.8-0.7c0.7-0.6,1.4-0.9,2.3-0.9c0.4,0,0.8,0,1.2,0
			c1.5-0.2,2.8,0.3,3.9,1.4c0.7,0.7,1.1,1.4,1.2,2.4c0,0.8,0,1.7,0,2.5c0,0.9-0.3,1.2-1.2,1.2c-2,0-4.1,0-6.1,0
			C123.5,12,123.2,12,122.9,12z M129,9.8c0-0.4,0-0.8,0-1.2c0-1-0.9-1.9-1.9-2c-0.8,0-1.5,0-2.3,0c-0.7,0-1.8,0.8-1.9,1.3
			c-0.1,0.6,0,1.2,0,1.9C124.9,9.8,126.9,9.8,129,9.8z"/>
		<path class="st0" d="M168.7,35.2c-0.1,1.2,0.7,2.2,1.9,2.2c1.6,0,3.2,0,4.7,0c0.3,0,0.6,0,0.9,0.1c0.4,0.1,0.7,0.4,0.7,0.9
			c0,0.5-0.2,0.8-0.6,1c-0.3,0.1-0.6,0.1-0.8,0.1c-1.8,0-3.6,0-5.4,0c-0.6,0-1.2-0.2-1.6-0.6c0,0,0,0,0,0c-1.5-1-2.1-2.3-1.9-4.1
			c0.1-1.2,0-2.3,0-3.5c0-0.8,0.3-1.5,0.9-2c0.4-0.3,0.7-0.7,1.2-1c0.5-0.3,1.1-0.5,1.7-0.6c0.4-0.1,0.9,0,1.4,0
			c1.7-0.2,3,0.4,4.2,1.5c0.6,0.5,0.9,1.1,1,1.9c0,1,0,2,0,3c0,0.7-0.3,0.9-1,1c-0.3,0-0.5,0-0.8,0c-1.9,0-3.9,0-5.8,0
			C169.1,35.2,168.9,35.2,168.7,35.2z M174.8,33c0-0.6,0-1.1,0-1.6c0-0.2-0.1-0.4-0.2-0.5c-0.6-0.6-1.2-1.2-2.1-1
			c-0.5,0.1-0.9,0-1.4,0c-2,0.1-2.8,1.3-2.2,3.2C170.7,33,172.7,33,174.8,33z"/>
		<path class="st0" d="M149.6,12c-0.1,1.3,0.8,2.2,1.9,2.3c1.5,0,3,0,4.5,0c0.3,0,0.7,0,1,0.1c0.5,0.1,0.8,0.4,0.8,0.9
			c0,0.5-0.2,0.9-0.8,1c-0.3,0.1-0.5,0.1-0.8,0.1c-1.7,0-3.4,0-5.2,0c-0.7,0-1.3-0.2-1.8-0.7c0,0-0.1-0.1-0.1-0.1
			c-1.4-0.9-2-2.2-1.8-3.9c0.1-1.1,0-2.2,0-3.3c0-1,0.4-1.8,1.2-2.5c1.1-1.1,2.3-1.6,3.8-1.4c0.2,0,0.4,0,0.6,0
			c1.8-0.2,3,0.7,4.1,1.9c0.4,0.4,0.6,1.1,0.6,1.7c0.1,0.9,0.1,1.8,0,2.7c0,0.8-0.3,1.1-1.1,1.1c-2.1,0-4.2,0-6.3,0
			C150.2,12,149.9,12,149.6,12z M155.7,9.8c0-0.4,0-0.8,0-1.2c0-1-0.9-1.9-1.9-2c-0.8,0-1.5,0-2.3,0c-0.7,0-1.8,0.8-1.9,1.3
			c-0.1,0.6,0,1.2,0,1.9C151.7,9.8,153.7,9.8,155.7,9.8z"/>
		<path class="st0" d="M134.9,38.6c-0.1,0-0.2,0-0.2,0c-1.6,1.2-3.4,1-5.1,0.9c-1.6-0.1-2.8-1.3-2.9-2.9c0-0.4,0-0.8,0-1.2
			c0-2,1.2-3.3,3.3-3.3c1.3,0,2.7,0,4,0c0.2,0,0.4,0,0.8,0c-0.1-0.6,0-1.2-0.3-1.7c-0.1-0.3-0.6-0.6-1-0.6c-1-0.1-2,0-3-0.1
			c-0.3,0-0.7,0-1-0.1c-0.5-0.1-0.8-0.4-0.8-1c0-0.5,0.2-0.9,0.7-1c0.3-0.1,0.7-0.1,1-0.1c1.1,0,2.1,0,3.2,0
			c1.9,0.1,3.1,1.3,3.1,3.2c0.1,2.3,0.2,4.6,0.2,6.9c0,0.2,0,0.5,0,0.7c-0.1,0.5-0.3,0.9-0.8,1c-0.5,0.1-0.9-0.1-1.2-0.6
			C135,38.8,135,38.7,134.9,38.6z M131.8,34.3C131.8,34.3,131.8,34.3,131.8,34.3c-0.7,0-1.4,0-2.1,0c-0.5,0-0.9,0.2-0.9,0.8
			c0,1.8-0.4,2.4,2,2.4c0.6,0,1.3,0.1,1.9-0.1c0.7-0.2,1.3-0.6,1.9-1c0.1-0.1,0.2-0.2,0.3-0.3c0.3-0.9-0.3-1.8-1.2-1.8
			C133,34.2,132.4,34.3,131.8,34.3z"/>
		<path class="st0" d="M98.7,31.7c1.5,0,2.8,0,4.3,0c0-0.2,0-0.5,0-0.7c0-1.9,0-3.7,0-5.6c0-0.8,0.4-1.2,1.2-1.2c0.7,0,1,0.4,1,1.2
			c0,1.9,0,3.7,0,5.6c0,0.4,0,0.7,0.5,0.8c0.3,0.1,0.5,0.6,0.6,1c0.1,0.4-0.1,0.8-0.6,1c-0.1,0.1-0.3,0.1-0.5,0.2c0,1.5,0,3,0,4.4
			c0,0.8-0.4,1.1-1.2,1.1c-0.7,0-1-0.4-1-1.1c0-1.3,0-2.5,0-3.8c0-0.2,0-0.4,0-0.7c-2.2,0-4.3,0-6.5,0c0-0.2,0-0.3,0-0.5
			c0-3.3,0-6.6,0-9.9c0-0.9,0.4-1.2,1.2-1.2c0.7,0,1,0.4,1,1.2c0,2.4,0,4.9,0,7.3C98.7,31.2,98.7,31.4,98.7,31.7z"/>
		<path class="st0" d="M192.7,4.5c0.6,0,1.3,0,1.9,0c1,0,1.8,0.4,2.5,1.1c0.5,0.5,0.5,1.1,0.1,1.5c-0.4,0.4-1.1,0.5-1.6,0
			c-0.4-0.4-0.9-0.6-1.5-0.5c-1.2,0-2.3,0-3.5,0c-0.4,0-0.8,0-0.9,0.5c-0.1,0.5,0.3,0.6,0.6,0.8c1.8,0.8,3.7,1.6,5.5,2.5
			c1.6,0.7,2.2,2.1,1.7,3.8c-0.3,1.3-1.4,2.1-3,2.2c-1.5,0.1-3,0-4.5,0c-1,0-1.8-0.5-2.4-1.1c-0.5-0.5-0.5-1-0.1-1.5
			c0.4-0.4,1.1-0.5,1.5-0.1c0.5,0.4,1,0.6,1.6,0.5c1.2,0,2.4,0,3.5,0c0.3,0,0.5,0,0.8-0.1c0.7-0.3,0.8-1.1,0.3-1.6
			c-0.3-0.3-0.7-0.4-1-0.6c-1.7-0.8-3.4-1.5-5-2.3c-0.9-0.4-1.4-1-1.5-2c-0.2-1.7,0.9-3,2.6-3.1C191.1,4.5,191.9,4.5,192.7,4.5
			C192.7,4.5,192.7,4.5,192.7,4.5z"/>
		<path class="st0" d="M142.3,29.5c0.6-0.4,1.1-0.7,1.6-1c1.3-1,2.8-0.9,4.3-0.6c1.1,0.2,1.9,1.1,2,2.3c0.1,2,0.2,4,0.2,6.1
			c0,0.7,0.1,1.5,0.1,2.2c0,0.5-0.1,0.9-0.7,1.1c-0.7,0.2-1.3-0.2-1.4-1c-0.1-1.2-0.1-2.5-0.2-3.8c-0.1-1.3-0.1-2.5-0.2-3.8
			c-0.1-0.9-0.4-1.1-1.3-1.2c-0.7,0-1.4,0.1-2,0.5c-0.7,0.5-1.5,0.9-2.2,1.4c-0.2,0.1-0.4,0.5-0.4,0.7c0,1.9,0,3.7,0,5.6
			c0,1.1-0.3,1.5-1,1.5c-0.8,0-1.1-0.4-1.1-1.5c0-3,0-5.9,0-8.9c0-0.2,0-0.4,0.1-0.7c0.1-0.5,0.4-0.8,0.9-0.8c0.6,0,0.9,0.2,1,0.8
			C142.3,28.8,142.3,29.1,142.3,29.5z"/>
		<path class="st0" d="M163.1,6.3c0.7-0.5,1.4-0.9,2-1.3c1.3-0.8,3.7-0.7,4.8,0.1c0.7,0.5,1.1,1.2,1.1,2.1c0.1,2.6,0.2,5.2,0.3,7.8
			c0,0.2,0,0.5-0.1,0.7c-0.1,0.5-0.4,0.7-0.9,0.7c-0.5,0-0.8-0.2-1-0.7c-0.1-0.2-0.1-0.5-0.1-0.8c-0.1-2.2-0.2-4.4-0.2-6.6
			c0-1.9-1.3-2-2.7-1.5c-1.1,0.4-2,1.2-2.9,1.8c-0.2,0.1-0.3,0.4-0.3,0.7c0,1.8,0,3.5,0,5.3c0,0.3,0,0.7-0.1,1
			c-0.1,0.5-0.4,0.8-1,0.8c-0.5,0-0.9-0.2-1-0.8c0-0.2-0.1-0.4-0.1-0.5c0-3.1,0-6.2,0-9.3c0-0.2,0-0.3,0.1-0.5
			c0.1-0.6,0.5-0.8,1.1-0.8c0.6,0,0.9,0.3,1,0.8C163,5.6,163.1,5.9,163.1,6.3z"/>
		<path class="st0" d="M178.3,6.6c0,2.3,0,4.5,0,6.7c0,0.5,0.4,0.9,0.9,0.9c0.7,0,1.4,0,2.1,0c0.5,0,0.7-0.4,0.9-0.8
			c0.3-0.8,0.8-1.1,1.5-0.9c0.6,0.2,0.9,0.8,0.6,1.6c-0.4,1.2-1.1,2-2.4,2.2c-1,0.1-2.1,0.1-3.1,0c-1.6-0.2-2.6-1.4-2.6-2.9
			c0-2,0-3.9,0-5.9c0-0.2,0-0.5,0-0.8c-0.4,0-0.8,0-1.2-0.1c-0.7-0.1-1-0.4-1-1c0-0.6,0.3-0.9,1-1c0.3,0,0.7,0,1.1-0.1
			c0-0.4,0-0.7,0-1.1c0-0.5,0-1.1,0.1-1.6c0.1-0.6,0.5-0.9,1-0.9c0.6,0,0.9,0.3,1,0.9c0.1,0.6,0.1,1.2,0.1,1.8c0,0.3,0,0.6,0,1
			c1.1,0,2.1,0,3.1,0c0.3,0,0.7,0,1,0.1c0.6,0.1,0.9,0.5,0.9,1c0,0.6-0.4,0.9-0.9,1c-0.8,0.1-1.7,0-2.6,0.1
			C179.4,6.6,178.9,6.6,178.3,6.6z"/>
		<path class="st0" d="M114.5,14.2c0.7,0,1.3,0,1.9,0c0.8,0.1,1.1,0.4,1.1,1.1c0,0.6-0.4,1-1.2,1c-2,0-3.9,0-5.9,0
			c-0.4,0-0.9-0.3-1.1-0.6c-0.4-0.6,0-1.3,0.7-1.4c0.7-0.1,1.5-0.1,2.3-0.1c0-4,0-7.9,0-12c-0.7,0-1.3,0-2,0c-0.8,0-1.1-0.4-1.1-1
			c0-0.7,0.3-1,1.1-1.1c1,0,1.9,0,2.9,0c0.9,0,1.1,0.3,1.2,1.2c0,0.4,0,0.7,0,1.1c0,3.7,0,7.3,0,11
			C114.5,13.7,114.5,13.9,114.5,14.2z"/>
		<path class="st0" d="M160.4,39.6c-2.2,0.5-3.9-0.5-5.5-2c-0.9-0.9-1.5-1.8-1.4-3.1c0-0.8,0-1.7,0-2.5c0-0.7,0.3-1.4,0.9-1.9
			c0.8-0.7,1.5-1.3,2.3-1.9c0.4-0.3,0.9-0.5,1.4-0.5c1.5-0.1,3,0,4.6,0c0.5,0,1,0.2,1.2,0.7c0.2,0.7-0.2,1.3-0.9,1.3
			c-1.1,0.1-2.3,0.2-3.4,0c-1.8-0.2-2.6,1.1-3.7,2c0,1.2,0,2.4,0,3.6c1.1,0.9,2,2.2,3.7,2.1c1-0.1,2.1,0,3.1,0
			c0.5,0,1.1,0.1,1.2,0.8c0.2,0.7-0.2,1.2-1.1,1.3c0,0-0.1,0-0.1,0C161.9,39.6,161.2,39.6,160.4,39.6z"/>
	</g>
</g>
</svg>
