<?xml version="1.0" encoding="utf-8"?>
<!-- Generator: Adobe Illustrator 27.9.0, SVG Export Plug-In . SVG Version: 6.00 Build 0)  -->
<svg version="1.1" id="Layer_1" xmlns="http://www.w3.org/2000/svg" xmlns:xlink="http://www.w3.org/1999/xlink" x="0px" y="0px"
	 viewBox="0 0 119.61 125.35" style="enable-background:new 0 0 119.61 125.35;" xml:space="preserve">
<style type="text/css">
	.st0{fill:#FFFFFF;}
</style>
<g>
	<polygon class="st0" points="53.65,83.62 59.59,89.56 59.59,125.2 53.65,125.2 53.65,92.52 50.68,89.56 38.8,89.56 35.83,92.52 
		35.83,125.2 29.9,125.2 29.9,89.56 35.83,83.62 	"/>
	<polygon class="st0" points="71.4,125.2 71.4,89.57 59.52,89.57 59.52,83.62 89.21,83.62 89.21,89.57 77.33,89.57 77.33,125.2 	"/>
	<polygon class="st0" points="23.7,0.12 6.37,0.12 6.37,7.12 20.21,7.12 23.7,10.61 23.7,14.11 6.37,31.43 6.37,41.9 30.68,17.59 
		30.68,17.54 30.68,7.12 	"/>
	<polygon class="st0" points="13.39,118.37 13.39,111.38 30.45,94.32 30.45,83.83 6.4,107.88 6.4,107.93 6.4,125.35 30.45,125.35 
		30.45,118.37 	"/>
	<path class="st0" d="M50.95,17.94l2.98-2.99V8.97l-2.98-2.98H36v11.96H50.95z M30.02,41.85V0h23.91l5.98,5.99v11.96l-5.98,5.98
		h-1.49l7.47,14.95v2.98h-5.98l-8.97-17.93H36v17.93H30.02z"/>
	<polygon class="st0" points="59.87,41.85 59.87,0 89.76,0 89.76,5.99 65.85,5.99 65.85,17.94 77.8,17.94 77.8,23.92 65.85,23.92 
		65.85,35.88 89.76,35.88 89.76,41.85 	"/>
	<polygon class="st0" points="95.69,41.85 89.72,35.88 89.72,29.9 95.69,29.9 95.69,32.89 98.68,35.88 110.64,35.88 113.63,32.89 
		113.63,26.92 110.64,23.92 95.69,23.92 89.72,17.94 89.72,5.99 95.69,0 113.63,0 119.61,5.99 119.61,11.97 113.63,11.97 
		113.63,8.97 110.64,5.99 98.68,5.99 95.69,8.97 95.69,14.95 98.68,17.94 113.63,17.94 119.61,23.92 119.61,35.88 113.63,41.85 	"/>
	<polygon class="st0" points="5.98,83.75 0,77.77 0,71.79 5.98,71.79 5.98,74.79 8.96,77.77 20.93,77.77 23.91,74.79 23.91,68.81 
		20.93,65.82 5.98,65.82 0,59.84 0,47.88 5.98,41.9 23.91,41.9 29.89,47.88 29.89,53.86 23.91,53.86 23.91,50.87 20.93,47.88 
		8.96,47.88 5.98,50.87 5.98,56.84 8.96,59.84 23.91,59.84 29.89,65.82 29.89,77.77 23.91,83.75 	"/>
	<polygon class="st0" points="29.74,83.75 29.74,77.77 41.69,77.77 41.69,47.88 29.74,47.88 29.74,41.9 59.63,41.9 59.63,47.88 
		47.67,47.88 47.67,77.77 59.63,77.77 59.63,83.75 	"/>
	<polygon class="st0" points="59.56,83.75 59.56,41.9 65.54,41.9 80.49,71.79 80.49,41.9 86.46,41.9 86.46,83.75 80.49,83.75 
		65.54,53.86 65.54,83.75 	"/>
	<polygon class="st0" points="89.61,83.75 83.63,77.77 83.63,47.88 89.61,41.9 107.54,41.9 113.52,47.88 113.52,53.86 107.54,53.86 
		107.54,50.87 104.56,47.88 92.59,47.88 89.61,50.87 89.61,74.79 92.59,77.77 104.56,77.77 107.54,74.79 107.54,68.81 104.56,68.81 
		104.56,62.82 113.52,62.82 113.52,77.77 107.54,83.75 	"/>
</g>
</svg>
