<?xml version="1.0" encoding="utf-8"?>
<!-- Generator: Adobe Illustrator 27.9.0, SVG Export Plug-In . SVG Version: 6.00 Build 0)  -->
<svg version="1.1" id="Layer_1" xmlns="http://www.w3.org/2000/svg" xmlns:xlink="http://www.w3.org/1999/xlink" x="0px" y="0px"
	 viewBox="0 0 352.1 326.4" style="enable-background:new 0 0 352.1 326.4;" xml:space="preserve">
<style type="text/css">
	.st0{fill:#FFFFFF;}
</style>
<g>
	<path class="st0" d="M2.3,0H69l16.3,16.4v37.2L68.9,70.2H23v36.2H2.3V0z M59.6,52.9l5.3-5.3V22.7l-5.3-5.3H23v35.6H59.6z"/>
	<path class="st0" d="M176.5,71.1v35.3h-20.7V75.9l-9.1-10.2h-33.1v40.7H92.9V0h66.7l16.3,16.4v32.2l-10.3,10.5L176.5,71.1z
		 M113.6,48.6h36.6l5.3-5.3V22.7l-5.3-5.3h-36.6V48.6z"/>
	<path class="st0" d="M245.7,106.4h-45.9L183.3,90V60.7l7.8-7.8l-7.8-7.6V16.4L199.8,0l45,0l16.4,16.4v16.7h-20.7V22.7l-5-5H209
		l-5,5v16.6l4.9,4.9h30.4v17.6h-30.4l-4.9,4.9v17.2l5,5h27.4l5-5V73.3h20.7V90L245.7,106.4z"/>
	<path class="st0" d="M269.7,90V74.8h20.4v9l5,5h31.5l5.2-5.2V66l-5-5h-40.3L270,44.5V16.4L286.4,0h48l16.4,16.4v15.4h-20.4v-9.1
		l-5-5h-30.1l-5,5v15.7l5,5h40.3l16.4,16.4v29.9l-16.7,16.7h-49.3L269.7,90z"/>
	<path class="st0" d="M0,200v-15.2h20.4v9l5,5h31.5l5.2-5.2V176l-5-5H16.7L0.3,154.5v-28.1L16.7,110h48l16.4,16.4v15.4H60.8v-9.1
		l-5-5H25.7l-5,5v15.7l5,5H66l16.4,16.4v29.9l-16.7,16.7H16.4L0,200z"/>
	<path class="st0" d="M92.3,110H113v106.4H92.3V110z"/>
	<path class="st0" d="M125.9,110h18.5l47.4,72.2h0.3V110h19.9v106.4h-18.5l-47.4-72.1h-0.3v72.1h-19.9V110z"/>
	<path class="st0" d="M222.7,198.9v-71.5l17.5-17.5h52.9l17.2,17.2v16.3h-20.7v-8.7l-7.1-7.1h-31.3l-7.8,7.8V191l7.8,7.8h31.6
		l7.4-7.4v-16.6h-22.8v-17.6h42.9v41.8l-17.5,17.5h-52.6L222.7,198.9z"/>
	<path class="st0" d="M0.8,308.9v-71.5L18.2,220h52l17.2,17.2v16.3H66.7v-8.7l-7.1-7.1H29.2l-7.8,7.8V301l7.8,7.8h30.4l7.1-7.1V293
		h20.7v16.3l-17.2,17.2h-52L0.8,308.9z"/>
	<path class="st0" d="M123.3,220h18.9l38.9,106.4h-21l-8.7-23.6H114l-8.7,23.6h-21L123.3,220z M146.9,285.8l-14.1-40.4h-0.3
		l-13.7,40.4H146.9z"/>
	<path class="st0" d="M194.6,237.5h-31.8V220H247v17.5h-31.8v88.9h-20.7V237.5z"/>
</g>
</svg>
