<?xml version="1.0" encoding="utf-8"?>
<!-- Generator: Adobe Illustrator 27.9.0, SVG Export Plug-In . SVG Version: 6.00 Build 0)  -->
<svg version="1.1" id="Layer_1" xmlns="http://www.w3.org/2000/svg" xmlns:xlink="http://www.w3.org/1999/xlink" x="0px" y="0px"
	 viewBox="0 0 119.6 125.3" style="enable-background:new 0 0 119.6 125.3;" xml:space="preserve">
<style type="text/css">
	.st0{fill:#292929;}
</style>
<g>
	<polygon class="st0" points="53.7,83.6 59.6,89.6 59.6,125.2 53.7,125.2 53.7,92.5 50.7,89.6 38.8,89.6 35.8,92.5 35.8,125.2 
		29.9,125.2 29.9,89.6 35.8,83.6 	"/>
	<polygon class="st0" points="71.4,125.2 71.4,89.6 59.5,89.6 59.5,83.6 89.2,83.6 89.2,89.6 77.3,89.6 77.3,125.2 	"/>
	<polygon class="st0" points="23.7,0.1 6.4,0.1 6.4,7.1 20.2,7.1 23.7,10.6 23.7,14.1 6.4,31.4 6.4,41.9 30.7,17.6 30.7,17.5 
		30.7,7.1 	"/>
	<polygon class="st0" points="13.4,118.4 13.4,111.4 30.5,94.3 30.5,83.8 6.4,107.9 6.4,107.9 6.4,125.3 30.5,125.3 30.5,118.4 	"/>
	<path class="st0" d="M51,17.9l3-3V9l-3-3H36v12L51,17.9L51,17.9z M30,41.8V0h23.9l6,6v12l-6,6h-1.5l7.5,15v3h-6l-9-17.9h-9v17.9
		L30,41.8L30,41.8z"/>
	<polygon class="st0" points="59.9,41.8 59.9,0 89.8,0 89.8,6 65.8,6 65.8,17.9 77.8,17.9 77.8,23.9 65.8,23.9 65.8,35.9 89.8,35.9 
		89.8,41.8 	"/>
	<polygon class="st0" points="95.7,41.8 89.7,35.9 89.7,29.9 95.7,29.9 95.7,32.9 98.7,35.9 110.6,35.9 113.6,32.9 113.6,26.9 
		110.6,23.9 95.7,23.9 89.7,17.9 89.7,6 95.7,0 113.6,0 119.6,6 119.6,12 113.6,12 113.6,9 110.6,6 98.7,6 95.7,9 95.7,14.9 
		98.7,17.9 113.6,17.9 119.6,23.9 119.6,35.9 113.6,41.8 	"/>
	<polygon class="st0" points="6,83.8 0,77.8 0,71.8 6,71.8 6,74.8 9,77.8 20.9,77.8 23.9,74.8 23.9,68.8 20.9,65.8 6,65.8 0,59.8 
		0,47.9 6,41.9 23.9,41.9 29.9,47.9 29.9,53.9 23.9,53.9 23.9,50.9 20.9,47.9 9,47.9 6,50.9 6,56.8 9,59.8 23.9,59.8 29.9,65.8 
		29.9,77.8 23.9,83.8 	"/>
	<polygon class="st0" points="29.7,83.8 29.7,77.8 41.7,77.8 41.7,47.9 29.7,47.9 29.7,41.9 59.6,41.9 59.6,47.9 47.7,47.9 
		47.7,77.8 59.6,77.8 59.6,83.8 	"/>
	<polygon class="st0" points="59.6,83.8 59.6,41.9 65.5,41.9 80.5,71.8 80.5,41.9 86.5,41.9 86.5,83.8 80.5,83.8 65.5,53.9 
		65.5,83.8 	"/>
	<polygon class="st0" points="89.6,83.8 83.6,77.8 83.6,47.9 89.6,41.9 107.5,41.9 113.5,47.9 113.5,53.9 107.5,53.9 107.5,50.9 
		104.6,47.9 92.6,47.9 89.6,50.9 89.6,74.8 92.6,77.8 104.6,77.8 107.5,74.8 107.5,68.8 104.6,68.8 104.6,62.8 113.5,62.8 
		113.5,77.8 107.5,83.8 	"/>
</g>
</svg>
